<svg xmlns="http://www.w3.org/2000/svg" xmlns:xlink="http://www.w3.org/1999/xlink" width="500" zoomAndPan="magnify" viewBox="0 0 375 374.999991" height="500" preserveAspectRatio="xMidYMid meet" version="1.0"><defs><g/><clipPath id="id1"><path d="M 30.777344 196.273438 L 112.648438 196.273438 L 112.648438 203.105469 L 30.777344 203.105469 Z M 30.777344 196.273438 " clip-rule="nonzero"/></clipPath><clipPath id="id2"><path d="M 26.769531 168 L 69 168 L 69 196 L 26.769531 196 Z M 26.769531 168 " clip-rule="nonzero"/></clipPath><clipPath id="id3"><path d="M 74.535156 168.164062 L 116.660156 168.164062 L 116.660156 195.171875 L 74.535156 195.171875 Z M 74.535156 168.164062 " clip-rule="nonzero"/></clipPath><clipPath id="id4"><path d="M 85 119.390625 L 116 119.390625 L 116 166 L 85 166 Z M 85 119.390625 " clip-rule="nonzero"/></clipPath></defs><rect x="-37.5" width="450" fill="#ffffff" y="-37.499999" height="449.999989" fill-opacity="1"/><rect x="-37.5" width="450" fill="#ffffff" y="-37.499999" height="449.999989" fill-opacity="1"/><rect x="-37.5" width="450" fill="#ffffff" y="-37.499999" height="449.999989" fill-opacity="1"/><rect x="-37.5" width="450" fill="#ffffff" y="-37.499999" height="449.999989" fill-opacity="1"/><g clip-path="url(#id1)"><path fill="#004aad" d="M 104.933594 200.09375 C 96.625 197.675781 87.550781 195.558594 78.847656 196.515625 C 78.847656 196.515625 76.273438 200.175781 71.722656 200.175781 C 67.171875 200.175781 64.601562 196.515625 64.601562 196.515625 C 55.894531 195.558594 46.824219 197.675781 38.511719 200.09375 L 30.847656 196.558594 L 30.824219 196.597656 C 33.199219 198.765625 35.570312 200.9375 37.945312 203.105469 L 38.839844 202.992188 C 43.480469 201.605469 48.292969 200.441406 53.101562 199.785156 C 56.515625 199.304688 60.066406 198.832031 63.507812 199.289062 C 65.390625 202.054688 68.578125 202.925781 71.722656 203.054688 C 74.867188 202.925781 78.054688 202.054688 79.9375 199.289062 C 83.378906 198.832031 86.933594 199.304688 90.347656 199.785156 C 95.15625 200.441406 99.964844 201.605469 104.605469 202.992188 L 104.609375 202.992188 L 105.5 203.105469 C 107.875 200.9375 110.25 198.765625 112.625 196.597656 L 112.601562 196.558594 L 104.933594 200.09375 " fill-opacity="1" fill-rule="nonzero"/></g><g clip-path="url(#id2)"><path fill="#004aad" d="M 54.421875 189.050781 C 59.546875 187.921875 65.167969 189.648438 68.789062 193.476562 C 66.523438 187.375 61.484375 186.226562 59.304688 186.019531 C 50.363281 185.457031 40.515625 190.773438 31.742188 192.066406 L 43.253906 168.269531 C 37.765625 177.226562 32.273438 186.183594 26.789062 195.144531 C 29.097656 195.136719 31.308594 195.054688 33.59375 194.6875 C 40.65625 193.28125 47.386719 190.597656 54.421875 189.050781 " fill-opacity="1" fill-rule="nonzero"/></g><g clip-path="url(#id3)"><path fill="#004aad" d="M 89.027344 189.050781 C 96.0625 190.597656 102.789062 193.28125 109.855469 194.6875 C 112.136719 195.054688 114.351562 195.136719 116.660156 195.144531 C 111.171875 186.183594 105.683594 177.226562 100.195312 168.269531 L 111.703125 192.066406 C 102.933594 190.773438 93.082031 185.457031 84.140625 186.019531 C 81.960938 186.226562 76.921875 187.375 74.65625 193.476562 C 78.28125 189.648438 83.902344 187.921875 89.027344 189.050781 " fill-opacity="1" fill-rule="nonzero"/></g><path fill="#004aad" d="M 66.210938 194.664062 C 66.390625 194.78125 66.488281 194.84375 66.488281 194.84375 L 66.507812 194.859375 C 66.71875 194.996094 67 194.945312 67.152344 194.742188 C 67.3125 194.53125 67.269531 194.230469 67.054688 194.070312 C 67.054688 194.070312 67.027344 194.050781 66.976562 194.011719 C 66.921875 193.976562 66.847656 193.917969 66.746094 193.847656 C 66.542969 193.710938 66.25 193.511719 65.859375 193.289062 C 65.078125 192.847656 63.929688 192.257812 62.460938 191.796875 C 60.992188 191.339844 59.207031 190.972656 57.273438 191.007812 C 56.308594 191.019531 55.3125 191.121094 54.320312 191.324219 C 53.332031 191.519531 52.332031 191.835938 51.402344 192.191406 C 50.46875 192.554688 49.542969 192.890625 48.625 193.207031 C 47.699219 193.519531 46.785156 193.8125 45.894531 194.082031 C 45.003906 194.34375 44.140625 194.605469 43.320312 194.835938 C 42.496094 195.0625 41.714844 195.269531 40.992188 195.453125 C 39.546875 195.816406 38.335938 196.109375 37.484375 196.292969 C 36.632812 196.472656 36.144531 196.578125 36.144531 196.578125 C 36.144531 196.578125 38.132812 196.398438 41.082031 195.855469 C 41.816406 195.71875 42.613281 195.558594 43.453125 195.378906 C 44.292969 195.199219 45.179688 195.003906 46.085938 194.765625 C 46.992188 194.53125 47.929688 194.273438 48.875 193.996094 C 49.820312 193.710938 50.78125 193.40625 51.71875 193.085938 C 52.660156 192.757812 53.566406 192.480469 54.507812 192.316406 C 55.441406 192.144531 56.375 192.070312 57.277344 192.074219 C 59.082031 192.085938 60.757812 192.390625 62.136719 192.828125 C 63.519531 193.261719 64.625 193.765625 65.367188 194.171875 C 65.734375 194.375 66.023438 194.542969 66.210938 194.664062 " fill-opacity="1" fill-rule="nonzero"/><path fill="#004aad" d="M 99.992188 195.378906 C 100.832031 195.558594 101.628906 195.71875 102.367188 195.855469 C 105.3125 196.398438 107.300781 196.578125 107.300781 196.578125 C 107.300781 196.578125 106.8125 196.472656 105.960938 196.292969 C 105.109375 196.109375 103.898438 195.816406 102.453125 195.453125 C 101.730469 195.269531 100.949219 195.0625 100.128906 194.835938 C 99.304688 194.605469 98.445312 194.34375 97.550781 194.082031 C 96.660156 193.8125 95.746094 193.519531 94.824219 193.207031 C 93.902344 192.890625 92.976562 192.554688 92.046875 192.191406 C 91.117188 191.835938 90.113281 191.519531 89.128906 191.324219 C 88.136719 191.121094 87.140625 191.019531 86.175781 191.007812 C 84.242188 190.972656 82.453125 191.339844 80.988281 191.796875 C 79.515625 192.257812 78.371094 192.847656 77.589844 193.289062 C 77.199219 193.511719 76.902344 193.710938 76.703125 193.847656 C 76.601562 193.917969 76.523438 193.976562 76.472656 194.011719 C 76.417969 194.050781 76.390625 194.070312 76.390625 194.070312 C 76.191406 194.222656 76.136719 194.507812 76.277344 194.71875 C 76.421875 194.941406 76.71875 195.003906 76.941406 194.855469 L 76.960938 194.84375 C 76.960938 194.84375 77.054688 194.78125 77.238281 194.664062 C 77.425781 194.542969 77.710938 194.375 78.082031 194.171875 C 78.820312 193.765625 79.925781 193.261719 81.308594 192.828125 C 82.691406 192.390625 84.367188 192.085938 86.167969 192.074219 C 87.070312 192.070312 88.003906 192.144531 88.9375 192.316406 C 89.878906 192.480469 90.785156 192.757812 91.726562 193.085938 C 92.664062 193.40625 93.625 193.710938 94.574219 193.996094 C 95.519531 194.273438 96.453125 194.53125 97.359375 194.765625 C 98.269531 195.003906 99.15625 195.199219 99.992188 195.378906 " fill-opacity="1" fill-rule="nonzero"/><path fill="#004aad" d="M 48.285156 195.949219 C 48.285156 195.949219 57.6875 193.398438 64.304688 195.316406 C 64.304688 195.316406 58.765625 191.960938 48.285156 195.949219 " fill-opacity="1" fill-rule="nonzero"/><path fill="#004aad" d="M 79.140625 195.316406 C 85.757812 193.398438 95.164062 195.949219 95.164062 195.949219 C 84.679688 191.960938 79.140625 195.316406 79.140625 195.316406 " fill-opacity="1" fill-rule="nonzero"/><path fill="#078763" d="M 99.238281 180.195312 C 90.640625 176.5625 79.960938 176.929688 74.808594 178.496094 C 74.441406 178.910156 74.0625 179.34375 73.671875 179.792969 C 73.671875 179.792969 87.382812 175.253906 104.226562 183.6875 C 105.859375 184.507812 107.34375 185.21875 108.695312 185.84375 L 107.109375 182.5625 C 104.703125 182.105469 102.011719 181.367188 99.238281 180.195312 " fill-opacity="1" fill-rule="nonzero"/><path fill="#078763" d="M 109.914062 142.835938 C 111.632812 141.65625 113.988281 139.59375 116.144531 137.601562 C 117.265625 129.238281 115.578125 122.566406 115.578125 122.566406 C 110.898438 142.683594 96.398438 157.054688 89.070312 163.027344 C 81.746094 169 69.285156 181.707031 69.285156 181.707031 L 73.671875 179.792969 C 82.273438 169.910156 84.691406 168.398438 89.742188 167.296875 C 93.1875 166.546875 96.640625 167.410156 99.492188 165.523438 C 101.355469 164.289062 103.246094 162.992188 105.226562 160.917969 L 98.511719 163.101562 C 99.222656 162.820312 103.992188 160.1875 107.457031 158.265625 C 109.300781 155.796875 111.238281 152.492188 113.3125 147.828125 C 114.625 144.875 115.441406 141.894531 115.921875 139.070312 C 112.089844 141.550781 107.328125 144.609375 109.914062 142.835938 " fill-opacity="1" fill-rule="nonzero"/><g clip-path="url(#id4)"><path fill="#078763" d="M 115.65625 119.390625 C 112.070312 133.210938 99.898438 146.992188 93.609375 153.375 C 91.949219 155.0625 86.804688 160.851562 85.441406 165.542969 C 86.480469 164.625 87.476562 163.773438 88.390625 163.027344 C 95.636719 157.117188 111.199219 140.414062 115.65625 119.390625 " fill-opacity="1" fill-rule="nonzero"/></g><g fill="#656562" fill-opacity="1"><g transform="translate(72.647834, 256.790938)"><g/></g></g><g fill="#656562" fill-opacity="1"><g transform="translate(117.339621, 185.150013)"><g><path d="M 12.25 -17.625 L 0.0585938 -17.625 L 0.0585938 -14.949219 L 4.730469 -14.949219 L 4.730469 0 L 7.578125 0 L 7.578125 -14.949219 L 12.25 -14.949219 Z M 12.25 -17.625 "/></g></g></g><g fill="#656562" fill-opacity="1"><g transform="translate(130.068731, 185.150013)"><g><path d="M 14.597656 -17.625 L 14.597656 -4.550781 L 4.816406 -17.625 L 1.9375 -17.625 L 1.9375 0 L 4.816406 0 L 4.816406 -13.101562 L 14.570312 0 L 17.445312 0 L 17.445312 -17.625 Z M 14.597656 -17.625 "/></g></g></g><g fill="#656562" fill-opacity="1"><g transform="translate(149.876056, 185.150013)"><g><path d="M 8.839844 -17.625 L 1.9375 -17.625 L 1.9375 0 L 4.816406 0 L 4.816406 -7.488281 L 8.839844 -7.488281 C 11.691406 -7.488281 13.921875 -9.664062 13.921875 -12.511719 C 13.921875 -15.332031 11.691406 -17.625 8.839844 -17.625 Z M 8.429688 -9.988281 L 4.816406 -9.988281 L 4.816406 -15.007812 L 8.429688 -15.007812 C 9.957031 -15.007812 11.101562 -14.011719 11.101562 -12.484375 C 11.101562 -10.925781 9.957031 -9.988281 8.429688 -9.988281 Z M 8.429688 -9.988281 "/></g></g></g><g fill="#656562" fill-opacity="1"><g transform="translate(164.514236, 185.150013)"><g><path d="M 6.84375 0.234375 C 10.015625 0.234375 12.601562 -1.644531 12.601562 -4.816406 C 12.601562 -11.074219 4.257812 -9.546875 4.257812 -13.160156 C 4.257812 -14.539062 5.34375 -15.183594 6.636719 -15.183594 C 7.8125 -15.183594 8.871094 -14.65625 9.664062 -13.65625 L 11.691406 -15.507812 C 10.574219 -16.890625 8.722656 -17.859375 6.636719 -17.859375 C 3.878906 -17.859375 1.378906 -16.125 1.378906 -12.953125 C 1.378906 -7.109375 9.722656 -8.546875 9.722656 -4.816406 C 9.722656 -3.378906 8.519531 -2.527344 6.871094 -2.527344 C 5.082031 -2.527344 3.730469 -3.523438 3.113281 -5.023438 L 0.644531 -3.523438 C 1.675781 -1.320312 4.023438 0.234375 6.84375 0.234375 Z M 6.84375 0.234375 "/></g></g></g><g fill="#656562" fill-opacity="1"><g transform="translate(178.271298, 185.150013)"><g><path d="M 10.308594 0.234375 C 13.746094 0.234375 16.710938 -1.675781 18.238281 -4.492188 L 15.773438 -5.816406 C 14.746094 -3.878906 12.6875 -2.613281 10.308594 -2.613281 C 6.84375 -2.613281 4.113281 -5.316406 4.113281 -8.8125 C 4.113281 -12.308594 6.84375 -15.007812 10.308594 -15.007812 C 12.6875 -15.007812 14.746094 -13.746094 15.773438 -11.808594 L 18.238281 -13.128906 C 16.710938 -15.949219 13.746094 -17.859375 10.308594 -17.859375 C 5.316406 -17.859375 1.261719 -13.804688 1.261719 -8.8125 C 1.261719 -3.816406 5.316406 0.234375 10.308594 0.234375 Z M 10.308594 0.234375 "/></g></g></g><g fill="#656562" fill-opacity="1"><g transform="translate(197.784921, 185.150013)"><g><path d="M 17.386719 -17.625 L 11.191406 -3.816406 L 5.023438 -17.625 L 1.9375 -17.625 L 1.9375 0 L 4.816406 0 L 4.816406 -12.128906 L 10.222656 0 L 12.128906 0 L 17.59375 -12.160156 L 17.59375 0 L 20.441406 0 L 20.441406 -17.625 Z M 17.386719 -17.625 "/></g></g></g><g fill="#656562" fill-opacity="1"><g transform="translate(220.588017, 185.150013)"><g><path d="M 12.628906 0 L 15.742188 0 L 9.371094 -17.625 L 6.167969 -17.625 L -0.207031 0 L 2.90625 0 L 4.171875 -3.730469 L 11.367188 -3.730469 Z M 5.023438 -6.257812 L 7.785156 -14.480469 L 10.542969 -6.257812 Z M 5.023438 -6.257812 "/></g></g></g><g fill="#656562" fill-opacity="1"><g transform="translate(236.547854, 185.150013)"><g><path d="M 2.085938 0 L 4.964844 0 L 4.964844 -17.625 L 2.085938 -17.625 Z M 2.085938 0 "/></g></g></g><g fill="#656562" fill-opacity="1"><g transform="translate(243.990336, 185.150013)"><g><path d="M 14.597656 -17.625 L 14.597656 -4.550781 L 4.816406 -17.625 L 1.9375 -17.625 L 1.9375 0 L 4.816406 0 L 4.816406 -13.101562 L 14.570312 0 L 17.445312 0 L 17.445312 -17.625 Z M 14.597656 -17.625 "/></g></g></g><g fill="#656562" fill-opacity="1"><g transform="translate(263.797666, 185.150013)"><g><path d="M 6.84375 0.234375 C 10.015625 0.234375 12.601562 -1.644531 12.601562 -4.816406 C 12.601562 -11.074219 4.257812 -9.546875 4.257812 -13.160156 C 4.257812 -14.539062 5.34375 -15.183594 6.636719 -15.183594 C 7.8125 -15.183594 8.871094 -14.65625 9.664062 -13.65625 L 11.691406 -15.507812 C 10.574219 -16.890625 8.722656 -17.859375 6.636719 -17.859375 C 3.878906 -17.859375 1.378906 -16.125 1.378906 -12.953125 C 1.378906 -7.109375 9.722656 -8.546875 9.722656 -4.816406 C 9.722656 -3.378906 8.519531 -2.527344 6.871094 -2.527344 C 5.082031 -2.527344 3.730469 -3.523438 3.113281 -5.023438 L 0.644531 -3.523438 C 1.675781 -1.320312 4.023438 0.234375 6.84375 0.234375 Z M 6.84375 0.234375 "/></g></g></g><g fill="#656562" fill-opacity="1"><g transform="translate(277.554733, 185.150013)"><g><path d="M 3.320312 0.234375 C 4.347656 0.234375 5.226562 -0.644531 5.226562 -1.675781 C 5.226562 -2.703125 4.347656 -3.582031 3.320312 -3.582031 C 2.289062 -3.582031 1.410156 -2.703125 1.410156 -1.675781 C 1.410156 -0.644531 2.289062 0.234375 3.320312 0.234375 Z M 3.320312 0.234375 "/></g></g></g><g fill="#656562" fill-opacity="1"><g transform="translate(284.615406, 185.150013)"><g><path d="M 10.308594 0.234375 C 13.746094 0.234375 16.710938 -1.675781 18.238281 -4.492188 L 15.773438 -5.816406 C 14.746094 -3.878906 12.6875 -2.613281 10.308594 -2.613281 C 6.84375 -2.613281 4.113281 -5.316406 4.113281 -8.8125 C 4.113281 -12.308594 6.84375 -15.007812 10.308594 -15.007812 C 12.6875 -15.007812 14.746094 -13.746094 15.773438 -11.808594 L 18.238281 -13.128906 C 16.710938 -15.949219 13.746094 -17.859375 10.308594 -17.859375 C 5.316406 -17.859375 1.261719 -13.804688 1.261719 -8.8125 C 1.261719 -3.816406 5.316406 0.234375 10.308594 0.234375 Z M 10.308594 0.234375 "/></g></g></g><g fill="#656562" fill-opacity="1"><g transform="translate(304.129034, 185.150013)"><g><path d="M 10.308594 0.234375 C 15.304688 0.234375 19.355469 -3.816406 19.355469 -8.8125 C 19.355469 -13.804688 15.304688 -17.859375 10.308594 -17.859375 C 5.316406 -17.859375 1.261719 -13.804688 1.261719 -8.8125 C 1.261719 -3.816406 5.316406 0.234375 10.308594 0.234375 Z M 10.308594 -2.613281 C 6.84375 -2.613281 4.113281 -5.316406 4.113281 -8.8125 C 4.113281 -12.308594 6.84375 -15.007812 10.308594 -15.007812 C 13.804688 -15.007812 16.507812 -12.308594 16.507812 -8.8125 C 16.507812 -5.316406 13.804688 -2.613281 10.308594 -2.613281 Z M 10.308594 -2.613281 "/></g></g></g><g fill="#656562" fill-opacity="1"><g transform="translate(325.169899, 185.150013)"><g><path d="M 17.386719 -17.625 L 11.191406 -3.816406 L 5.023438 -17.625 L 1.9375 -17.625 L 1.9375 0 L 4.816406 0 L 4.816406 -12.128906 L 10.222656 0 L 12.128906 0 L 17.59375 -12.160156 L 17.59375 0 L 20.441406 0 L 20.441406 -17.625 Z M 17.386719 -17.625 "/></g></g></g></svg>